<svg id="visual" viewBox="0 0 1500 500" width="1500" height="500" xmlns="http://www.w3.org/2000/svg" xmlns:xlink="http://www.w3.org/1999/xlink" version="1.1"><rect width="1500" height="500" fill="#00000F"></rect><g><g transform="translate(576 360)"><path d="M112.8 -36.8C128.4 11.3 110.9 69.9 71.3 98.8C31.8 127.7 -29.8 126.8 -70.3 97.2C-110.8 67.7 -130.1 9.6 -114.9 -38C-99.6 -85.6 -49.8 -122.7 -0.6 -122.5C48.6 -122.3 97.2 -84.8 112.8 -36.8Z" fill="#050566"></path></g><g transform="translate(1433 270)"><path d="M94.9 -33.3C106.5 4.8 88 50.3 58.3 69.4C28.5 88.5 -12.6 81.2 -39.5 60.3C-66.3 39.4 -78.9 4.8 -69.9 -29.6C-61 -64.1 -30.5 -98.5 5.6 -100.3C41.7 -102.1 83.4 -71.4 94.9 -33.3Z" fill="#050566"></path></g><g transform="translate(1062 377)"><path d="M113.7 -33.8C128.8 9.6 109.8 67.3 74.6 89.9C39.3 112.5 -12.1 100 -50.9 71.5C-89.6 43 -115.7 -1.5 -105.1 -38.8C-94.5 -76 -47.2 -106 1 -106.3C49.3 -106.6 98.5 -77.3 113.7 -33.8Z" fill="#050566"></path></g><g transform="translate(176 131)"><path d="M57.5 -18.7C64.3 2.3 52.6 29.4 32.9 43.2C13.2 56.9 -14.5 57.5 -34 44C-53.5 30.5 -64.8 2.9 -57.7 -18.5C-50.7 -39.8 -25.4 -54.9 0 -54.9C25.3 -54.9 50.7 -39.8 57.5 -18.7Z" fill="#050566"></path></g><g transform="translate(986 35)"><path d="M100.4 -37.3C112 3.4 91.1 49.9 56.3 74.6C21.4 99.2 -27.3 101.9 -59.4 79.2C-91.5 56.5 -107 8.3 -94.3 -33.7C-81.6 -75.8 -40.8 -111.7 1.8 -112.3C44.3 -112.9 88.7 -78 100.4 -37.3Z" fill="#050566"></path></g></g></svg>