<?xml version="1.0" encoding="UTF-8"?>
<svg xmlns="http://www.w3.org/2000/svg" xmlns:xlink="http://www.w3.org/1999/xlink" width="375pt" height="317.249999pt" viewBox="0 0 375 317.249999" version="1.2">
<defs>
<clipPath id="clip1">
  <path d="M 0.441406 1.589844 L 374.558594 1.589844 L 374.558594 316 L 0.441406 316 Z M 0.441406 1.589844 "/>
</clipPath>
</defs>
<g id="surface1">
<g clip-path="url(#clip1)" clip-rule="nonzero">
<path style=" stroke:none;fill-rule:nonzero;fill:rgb(1.959229%,1.959229%,39.99939%);fill-opacity:1;" d="M 205.519531 1.746094 C 207.015625 1.738281 208.511719 1.804688 210 1.9375 C 211.492188 2.070312 212.972656 2.273438 214.445312 2.542969 C 215.917969 2.816406 217.371094 3.15625 218.8125 3.5625 C 220.253906 3.96875 221.671875 4.441406 223.066406 4.980469 C 224.464844 5.519531 225.832031 6.121094 227.171875 6.789062 C 228.511719 7.453125 229.820312 8.179688 231.089844 8.96875 C 232.363281 9.753906 233.597656 10.601562 234.792969 11.503906 C 235.984375 12.40625 237.136719 13.359375 238.238281 14.371094 C 239.34375 15.378906 240.398438 16.4375 241.40625 17.546875 C 242.414062 18.652344 243.367188 19.804688 244.265625 21 C 245.164062 22.195312 246.007812 23.433594 246.789062 24.707031 C 247.574219 25.980469 248.296875 27.289062 248.960938 28.628906 C 249.625 29.972656 250.222656 31.339844 250.757812 32.738281 C 251.292969 34.136719 251.761719 35.554688 252.164062 36.996094 C 252.566406 38.4375 252.902344 39.894531 253.167969 41.367188 C 253.4375 42.839844 253.636719 44.320312 253.765625 45.808594 C 253.894531 47.300781 253.953125 48.792969 253.945312 50.289062 C 253.933594 51.785156 253.855469 53.28125 253.707031 54.769531 C 253.558594 56.257812 253.339844 57.734375 253.054688 59.203125 C 252.769531 60.671875 252.414062 62.125 251.996094 63.5625 C 251.574219 64.996094 251.085938 66.410156 250.535156 67.800781 C 249.980469 69.191406 249.363281 70.554688 248.683594 71.886719 C 248.003906 73.21875 247.265625 74.519531 246.464844 75.78125 C 245.664062 77.046875 244.808594 78.269531 243.894531 79.457031 C 242.976562 80.640625 242.011719 81.78125 240.988281 82.875 C 239.96875 83.96875 238.902344 85.011719 237.78125 86.007812 C 236.664062 87.003906 235.503906 87.945312 234.296875 88.832031 C 233.09375 89.71875 231.847656 90.546875 230.566406 91.320312 C 229.285156 92.089844 227.96875 92.800781 226.621094 93.449219 C 225.269531 94.097656 223.894531 94.683594 222.492188 95.203125 C 221.089844 95.726562 219.664062 96.179688 218.21875 96.566406 C 216.773438 96.957031 215.3125 97.277344 213.839844 97.53125 C 212.363281 97.78125 210.878906 97.964844 209.386719 98.082031 C 207.894531 98.195312 206.402344 98.242188 204.90625 98.214844 C 203.40625 98.191406 201.914062 98.097656 200.429688 97.933594 C 198.941406 97.769531 197.464844 97.539062 195.996094 97.238281 C 194.53125 96.9375 193.082031 96.570312 191.648438 96.132812 C 190.21875 95.699219 188.808594 95.199219 187.425781 94.632812 C 186.039062 94.066406 184.683594 93.4375 183.355469 92.742188 C 182.03125 92.050781 180.738281 91.296875 179.480469 90.484375 C 178.222656 89.671875 177.007812 88.804688 175.832031 87.878906 C 174.65625 86.953125 173.527344 85.972656 172.441406 84.941406 C 171.359375 83.910156 170.324219 82.832031 169.339844 81.703125 C 168.355469 80.578125 167.425781 79.40625 166.550781 78.191406 C 165.675781 76.980469 164.855469 75.726562 164.097656 74.4375 C 163.339844 73.148438 162.644531 71.824219 162.007812 70.472656 C 161.371094 69.117188 160.800781 67.734375 160.292969 66.328125 C 159.785156 64.921875 159.34375 63.492188 158.972656 62.042969 L 133.140625 62.042969 C 131.953125 62.042969 130.773438 62.105469 129.59375 62.222656 C 128.414062 62.339844 127.242188 62.511719 126.082031 62.746094 C 124.917969 62.976562 123.773438 63.265625 122.636719 63.609375 C 121.503906 63.953125 120.390625 64.355469 119.296875 64.808594 C 118.203125 65.261719 117.132812 65.769531 116.085938 66.328125 C 115.042969 66.886719 114.027344 67.496094 113.042969 68.152344 C 112.058594 68.8125 111.105469 69.515625 110.191406 70.269531 C 109.273438 71.019531 108.398438 71.8125 107.5625 72.652344 C 106.722656 73.488281 105.929688 74.367188 105.175781 75.28125 C 104.425781 76.195312 103.71875 77.148438 103.058594 78.132812 C 102.402344 79.117188 101.792969 80.132812 101.234375 81.175781 C 100.675781 82.21875 100.167969 83.289062 99.714844 84.382812 C 99.261719 85.476562 98.859375 86.589844 98.515625 87.726562 C 98.171875 88.859375 97.882812 90.003906 97.652344 91.167969 C 97.417969 92.328125 97.246094 93.5 97.128906 94.679688 C 97.011719 95.855469 96.949219 97.039062 96.949219 98.222656 L 96.949219 146.460938 L 279.605469 146.460938 C 279.847656 145.523438 280.117188 144.59375 280.414062 143.675781 C 280.714844 142.753906 281.039062 141.84375 281.390625 140.941406 C 281.746094 140.039062 282.125 139.148438 282.53125 138.269531 C 282.9375 137.390625 283.371094 136.527344 283.828125 135.671875 C 284.285156 134.820312 284.769531 133.984375 285.28125 133.160156 C 285.789062 132.335938 286.324219 131.527344 286.878906 130.738281 C 287.4375 129.945312 288.019531 129.171875 288.625 128.414062 C 289.226562 127.660156 289.855469 126.921875 290.503906 126.203125 C 291.152344 125.484375 291.820312 124.785156 292.511719 124.109375 C 293.203125 123.429688 293.914062 122.773438 294.644531 122.136719 C 295.375 121.5 296.125 120.886719 296.890625 120.296875 C 297.65625 119.707031 298.441406 119.140625 299.242188 118.597656 C 300.046875 118.054688 300.863281 117.535156 301.695312 117.039062 C 302.527344 116.546875 303.375 116.078125 304.234375 115.632812 C 305.097656 115.191406 305.96875 114.773438 306.855469 114.382812 C 307.742188 113.992188 308.640625 113.628906 309.546875 113.292969 C 310.453125 112.957031 311.371094 112.648438 312.296875 112.367188 C 313.226562 112.085938 314.160156 111.832031 315.101562 111.605469 C 316.042969 111.378906 316.992188 111.183594 317.945312 111.015625 C 318.898438 110.847656 319.855469 110.707031 320.816406 110.597656 C 321.78125 110.488281 322.742188 110.40625 323.710938 110.351562 C 324.679688 110.300781 325.644531 110.277344 326.613281 110.285156 C 327.582031 110.289062 328.550781 110.324219 329.515625 110.386719 C 330.480469 110.453125 331.445312 110.546875 332.40625 110.667969 C 333.367188 110.789062 334.324219 110.941406 335.273438 111.121094 C 336.226562 111.300781 337.171875 111.507812 338.109375 111.742188 C 339.050781 111.980469 339.980469 112.242188 340.902344 112.535156 C 341.828125 112.828125 342.738281 113.148438 343.644531 113.496094 C 344.546875 113.84375 345.441406 114.21875 346.320312 114.621094 C 347.203125 115.019531 348.070312 115.449219 348.925781 115.902344 C 349.78125 116.355469 350.625 116.832031 351.449219 117.335938 C 352.277344 117.839844 353.085938 118.371094 353.882812 118.921875 C 354.675781 119.476562 355.457031 120.050781 356.214844 120.652344 C 356.976562 121.25 357.71875 121.871094 358.441406 122.515625 C 359.164062 123.160156 359.867188 123.828125 360.546875 124.511719 C 361.230469 125.199219 361.890625 125.90625 362.53125 126.632812 C 363.171875 127.359375 363.789062 128.105469 364.386719 128.867188 C 364.980469 129.632812 365.550781 130.410156 366.101562 131.210938 C 366.648438 132.007812 367.171875 132.820312 367.671875 133.652344 C 368.171875 134.480469 368.644531 135.324219 369.09375 136.183594 C 369.542969 137.039062 369.964844 137.910156 370.359375 138.792969 C 370.757812 139.679688 371.125 140.574219 371.46875 141.476562 C 371.808594 142.382812 372.125 143.300781 372.410156 144.222656 C 372.699219 145.148438 372.957031 146.082031 373.1875 147.019531 C 373.417969 147.960938 373.621094 148.90625 373.796875 149.859375 C 373.96875 150.8125 374.113281 151.769531 374.230469 152.730469 C 374.347656 153.691406 374.433594 154.652344 374.492188 155.621094 C 374.550781 156.585938 374.578125 157.554688 374.578125 158.523438 C 374.578125 159.488281 374.550781 160.457031 374.492188 161.421875 C 374.433594 162.390625 374.347656 163.351562 374.230469 164.316406 C 374.113281 165.277344 373.96875 166.230469 373.796875 167.183594 C 373.621094 168.136719 373.417969 169.082031 373.1875 170.023438 C 372.957031 170.964844 372.699219 171.894531 372.410156 172.820312 C 372.125 173.746094 371.808594 174.660156 371.46875 175.566406 C 371.125 176.472656 370.757812 177.367188 370.359375 178.25 C 369.964844 179.132812 369.542969 180.003906 369.09375 180.859375 C 368.644531 181.71875 368.171875 182.5625 367.671875 183.390625 C 367.171875 184.222656 366.648438 185.035156 366.101562 185.832031 C 365.550781 186.632812 364.980469 187.414062 364.386719 188.175781 C 363.789062 188.941406 363.171875 189.683594 362.53125 190.410156 C 361.890625 191.136719 361.230469 191.84375 360.546875 192.53125 C 359.867188 193.214844 359.164062 193.882812 358.441406 194.527344 C 357.71875 195.171875 356.976562 195.792969 356.214844 196.390625 C 355.457031 196.992188 354.675781 197.566406 353.882812 198.121094 C 353.085938 198.675781 352.277344 199.203125 351.449219 199.707031 C 350.625 200.210938 349.78125 200.6875 348.925781 201.144531 C 348.070312 201.597656 347.203125 202.023438 346.320312 202.425781 C 345.441406 202.824219 344.546875 203.199219 343.644531 203.546875 C 342.738281 203.894531 341.828125 204.214844 340.902344 204.507812 C 339.980469 204.800781 339.050781 205.0625 338.109375 205.300781 C 337.171875 205.535156 336.226562 205.746094 335.273438 205.925781 C 334.324219 206.105469 333.367188 206.253906 332.40625 206.375 C 331.445312 206.5 330.480469 206.589844 329.515625 206.65625 C 328.550781 206.71875 327.582031 206.753906 326.613281 206.761719 C 325.644531 206.765625 324.679688 206.742188 323.710938 206.691406 C 322.742188 206.636719 321.78125 206.554688 320.816406 206.445312 C 319.855469 206.335938 318.898438 206.195312 317.945312 206.027344 C 316.992188 205.859375 316.042969 205.664062 315.101562 205.4375 C 314.160156 205.210938 313.226562 204.960938 312.296875 204.679688 C 311.371094 204.394531 310.453125 204.085938 309.546875 203.75 C 308.640625 203.414062 307.742188 203.050781 306.855469 202.660156 C 305.96875 202.269531 305.097656 201.851562 304.234375 201.410156 C 303.375 200.964844 302.527344 200.496094 301.695312 200.003906 C 300.863281 199.507812 300.046875 198.992188 299.242188 198.445312 C 298.441406 197.902344 297.65625 197.335938 296.890625 196.746094 C 296.125 196.15625 295.375 195.542969 294.644531 194.90625 C 293.914062 194.273438 293.203125 193.613281 292.511719 192.9375 C 291.820312 192.257812 291.152344 191.558594 290.503906 190.839844 C 289.855469 190.121094 289.226562 189.382812 288.625 188.628906 C 288.019531 187.871094 287.4375 187.097656 286.878906 186.304688 C 286.324219 185.515625 285.789062 184.707031 285.28125 183.882812 C 284.769531 183.0625 284.285156 182.222656 283.828125 181.371094 C 283.371094 180.515625 282.9375 179.652344 282.53125 178.773438 C 282.125 177.894531 281.746094 177.003906 281.390625 176.101562 C 281.039062 175.203125 280.714844 174.289062 280.414062 173.371094 C 280.117188 172.449219 279.847656 171.519531 279.605469 170.582031 L 24.570312 170.582031 L 24.570312 218.820312 C 24.570312 220.003906 24.628906 221.1875 24.746094 222.367188 C 24.863281 223.542969 25.039062 224.714844 25.269531 225.875 C 25.503906 227.039062 25.792969 228.1875 26.136719 229.320312 C 26.480469 230.453125 26.878906 231.566406 27.335938 232.660156 C 27.789062 233.753906 28.292969 234.824219 28.855469 235.867188 C 29.414062 236.914062 30.023438 237.925781 30.679688 238.910156 C 31.339844 239.898438 32.042969 240.847656 32.796875 241.761719 C 33.546875 242.679688 34.34375 243.554688 35.179688 244.390625 C 36.019531 245.230469 36.894531 246.023438 37.8125 246.777344 C 38.726562 247.527344 39.675781 248.234375 40.664062 248.890625 C 41.648438 249.550781 42.664062 250.15625 43.707031 250.71875 C 44.75 251.277344 45.820312 251.78125 46.914062 252.234375 C 48.011719 252.691406 49.125 253.089844 50.257812 253.433594 C 51.390625 253.777344 52.539062 254.066406 53.703125 254.296875 C 54.863281 254.53125 56.035156 254.707031 57.214844 254.824219 C 58.390625 254.941406 59.574219 255 60.757812 255 L 110.71875 255 C 110.960938 254.0625 111.230469 253.132812 111.527344 252.210938 C 111.824219 251.292969 112.152344 250.378906 112.503906 249.480469 C 112.855469 248.578125 113.238281 247.6875 113.644531 246.808594 C 114.050781 245.929688 114.480469 245.066406 114.941406 244.210938 C 115.398438 243.359375 115.882812 242.519531 116.394531 241.699219 C 116.902344 240.875 117.433594 240.066406 117.992188 239.277344 C 118.550781 238.484375 119.132812 237.710938 119.734375 236.953125 C 120.339844 236.199219 120.96875 235.460938 121.617188 234.742188 C 122.265625 234.023438 122.933594 233.324219 123.625 232.644531 C 124.316406 231.96875 125.027344 231.308594 125.757812 230.675781 C 126.488281 230.039062 127.234375 229.425781 128.003906 228.835938 C 128.769531 228.246094 129.554688 227.679688 130.355469 227.136719 C 131.15625 226.589844 131.976562 226.074219 132.808594 225.578125 C 133.640625 225.085938 134.488281 224.617188 135.347656 224.171875 C 136.210938 223.730469 137.082031 223.3125 137.96875 222.921875 C 138.855469 222.53125 139.75 222.167969 140.660156 221.832031 C 141.566406 221.496094 142.484375 221.1875 143.410156 220.902344 C 144.335938 220.621094 145.273438 220.371094 146.214844 220.144531 C 147.15625 219.917969 148.101562 219.722656 149.058594 219.554688 C 150.011719 219.386719 150.96875 219.246094 151.929688 219.136719 C 152.890625 219.027344 153.855469 218.945312 154.824219 218.890625 C 155.789062 218.839844 156.757812 218.816406 157.726562 218.820312 C 158.695312 218.828125 159.664062 218.863281 160.628906 218.925781 C 161.59375 218.992188 162.558594 219.082031 163.519531 219.207031 C 164.480469 219.328125 165.433594 219.476562 166.386719 219.65625 C 167.339844 219.835938 168.285156 220.046875 169.222656 220.28125 C 170.160156 220.519531 171.09375 220.78125 172.015625 221.074219 C 172.9375 221.367188 173.851562 221.6875 174.757812 222.035156 C 175.660156 222.382812 176.554688 222.757812 177.433594 223.15625 C 178.316406 223.558594 179.183594 223.984375 180.039062 224.4375 C 180.894531 224.894531 181.734375 225.371094 182.5625 225.875 C 183.390625 226.378906 184.199219 226.90625 184.996094 227.460938 C 185.789062 228.015625 186.566406 228.589844 187.328125 229.191406 C 188.089844 229.789062 188.828125 230.410156 189.550781 231.054688 C 190.273438 231.699219 190.976562 232.367188 191.660156 233.050781 C 192.34375 233.738281 193.003906 234.445312 193.644531 235.171875 C 194.285156 235.898438 194.902344 236.640625 195.496094 237.40625 C 196.09375 238.167969 196.664062 238.949219 197.214844 239.75 C 197.761719 240.546875 198.285156 241.359375 198.785156 242.191406 C 199.285156 243.019531 199.757812 243.863281 200.207031 244.722656 C 200.65625 245.578125 201.078125 246.449219 201.472656 247.332031 C 201.867188 248.214844 202.238281 249.109375 202.578125 250.015625 C 202.921875 250.921875 203.238281 251.835938 203.523438 252.761719 C 203.8125 253.6875 204.070312 254.617188 204.300781 255.558594 C 204.53125 256.5 204.734375 257.445312 204.90625 258.398438 C 205.082031 259.351562 205.226562 260.304688 205.34375 261.265625 C 205.460938 262.230469 205.546875 263.191406 205.605469 264.160156 C 205.664062 265.125 205.691406 266.09375 205.691406 267.058594 C 205.691406 268.027344 205.664062 268.996094 205.605469 269.960938 C 205.546875 270.929688 205.460938 271.890625 205.34375 272.851562 C 205.226562 273.8125 205.082031 274.769531 204.90625 275.722656 C 204.734375 276.675781 204.53125 277.621094 204.300781 278.5625 C 204.070312 279.5 203.8125 280.433594 203.523438 281.359375 C 203.238281 282.28125 202.921875 283.199219 202.578125 284.105469 C 202.238281 285.007812 201.867188 285.902344 201.472656 286.789062 C 201.078125 287.671875 200.65625 288.542969 200.207031 289.398438 C 199.757812 290.257812 199.285156 291.101562 198.785156 291.929688 C 198.285156 292.761719 197.761719 293.574219 197.214844 294.371094 C 196.664062 295.171875 196.09375 295.949219 195.496094 296.714844 C 194.902344 297.476562 194.285156 298.222656 193.644531 298.949219 C 193.003906 299.675781 192.34375 300.382812 191.660156 301.070312 C 190.976562 301.753906 190.273438 302.421875 189.550781 303.066406 C 188.828125 303.710938 188.089844 304.332031 187.328125 304.929688 C 186.566406 305.53125 185.789062 306.105469 184.996094 306.660156 C 184.199219 307.210938 183.390625 307.742188 182.5625 308.246094 C 181.734375 308.75 180.894531 309.226562 180.039062 309.679688 C 179.183594 310.132812 178.316406 310.5625 177.433594 310.960938 C 176.554688 311.363281 175.660156 311.738281 174.757812 312.085938 C 173.851562 312.433594 172.9375 312.753906 172.015625 313.046875 C 171.09375 313.339844 170.160156 313.601562 169.222656 313.839844 C 168.285156 314.074219 167.339844 314.28125 166.386719 314.460938 C 165.433594 314.640625 164.480469 314.792969 163.519531 314.914062 C 162.558594 315.035156 161.59375 315.128906 160.628906 315.195312 C 159.664062 315.257812 158.695312 315.292969 157.726562 315.296875 C 156.757812 315.304688 155.789062 315.28125 154.824219 315.230469 C 153.855469 315.175781 152.890625 315.09375 151.929688 314.984375 C 150.96875 314.875 150.011719 314.734375 149.058594 314.566406 C 148.101562 314.398438 147.15625 314.203125 146.214844 313.976562 C 145.273438 313.75 144.335938 313.496094 143.410156 313.214844 C 142.484375 312.933594 141.566406 312.625 140.660156 312.289062 C 139.75 311.953125 138.855469 311.589844 137.96875 311.199219 C 137.082031 310.808594 136.210938 310.390625 135.347656 309.949219 C 134.488281 309.503906 133.640625 309.035156 132.808594 308.542969 C 131.976562 308.046875 131.15625 307.527344 130.355469 306.984375 C 129.554688 306.441406 128.769531 305.875 128.003906 305.285156 C 127.234375 304.695312 126.488281 304.082031 125.757812 303.445312 C 125.027344 302.808594 124.316406 302.152344 123.625 301.472656 C 122.933594 300.796875 122.265625 300.097656 121.617188 299.378906 C 120.96875 298.660156 120.339844 297.921875 119.734375 297.167969 C 119.132812 296.410156 118.550781 295.636719 117.992188 294.84375 C 117.433594 294.054688 116.902344 293.246094 116.394531 292.421875 C 115.882812 291.597656 115.398438 290.761719 114.941406 289.910156 C 114.480469 289.054688 114.050781 288.191406 113.644531 287.3125 C 113.238281 286.433594 112.855469 285.542969 112.503906 284.640625 C 112.152344 283.738281 111.824219 282.828125 111.527344 281.90625 C 111.230469 280.988281 110.960938 280.058594 110.71875 279.121094 L 60.757812 279.121094 C 58.785156 279.117188 56.8125 279.019531 54.847656 278.824219 C 52.882812 278.628906 50.933594 278.335938 48.996094 277.949219 C 47.0625 277.5625 45.148438 277.082031 43.257812 276.507812 C 41.371094 275.933594 39.511719 275.265625 37.6875 274.511719 C 35.863281 273.753906 34.082031 272.910156 32.339844 271.976562 C 30.601562 271.046875 28.910156 270.03125 27.265625 268.933594 C 25.625 267.835938 24.042969 266.664062 22.515625 265.410156 C 20.988281 264.15625 19.527344 262.832031 18.128906 261.4375 C 16.734375 260.039062 15.410156 258.578125 14.15625 257.054688 C 12.902344 255.527344 11.726562 253.945312 10.628906 252.304688 C 9.53125 250.664062 8.519531 248.972656 7.585938 247.230469 C 6.65625 245.488281 5.8125 243.707031 5.054688 241.882812 C 4.296875 240.0625 3.632812 238.207031 3.054688 236.316406 C 2.480469 234.425781 2 232.515625 1.613281 230.578125 C 1.226562 228.644531 0.933594 226.695312 0.738281 224.730469 C 0.542969 222.765625 0.445312 220.796875 0.441406 218.820312 L 0.441406 158.523438 C 0.441406 157.730469 0.519531 156.945312 0.675781 156.167969 C 0.828125 155.390625 1.058594 154.636719 1.359375 153.90625 C 1.664062 153.175781 2.035156 152.480469 2.476562 151.820312 C 2.914062 151.164062 3.414062 150.554688 3.976562 149.996094 C 4.535156 149.433594 5.144531 148.933594 5.804688 148.496094 C 6.460938 148.054688 7.15625 147.683594 7.890625 147.378906 C 8.621094 147.078125 9.375 146.847656 10.152344 146.695312 C 10.929688 146.539062 11.714844 146.460938 12.503906 146.460938 L 72.824219 146.460938 L 72.824219 98.222656 C 72.824219 96.25 72.925781 94.277344 73.121094 92.316406 C 73.316406 90.351562 73.605469 88.398438 73.992188 86.464844 C 74.382812 84.527344 74.863281 82.617188 75.4375 80.726562 C 76.011719 78.839844 76.675781 76.984375 77.433594 75.160156 C 78.191406 73.335938 79.035156 71.554688 79.96875 69.8125 C 80.898438 68.070312 81.914062 66.382812 83.011719 64.738281 C 84.109375 63.097656 85.285156 61.515625 86.535156 59.988281 C 87.789062 58.464844 89.113281 57.003906 90.511719 55.605469 C 91.90625 54.210938 93.367188 52.886719 94.894531 51.632812 C 96.421875 50.382812 98.003906 49.207031 99.648438 48.109375 C 101.289062 47.011719 102.980469 45.996094 104.722656 45.066406 C 106.460938 44.132812 108.246094 43.289062 110.070312 42.535156 C 111.894531 41.777344 113.75 41.113281 115.640625 40.535156 C 117.527344 39.960938 119.441406 39.480469 121.378906 39.09375 C 123.3125 38.707031 125.265625 38.417969 127.230469 38.222656 C 129.195312 38.023438 131.164062 37.925781 133.140625 37.921875 L 158.972656 37.921875 C 159.300781 36.644531 159.679688 35.378906 160.113281 34.128906 C 160.542969 32.878906 161.027344 31.648438 161.5625 30.4375 C 162.09375 29.226562 162.679688 28.042969 163.308594 26.878906 C 163.941406 25.71875 164.621094 24.585938 165.34375 23.476562 C 166.070312 22.371094 166.839844 21.296875 167.652344 20.253906 C 168.46875 19.210938 169.324219 18.207031 170.21875 17.234375 C 171.117188 16.261719 172.050781 15.328125 173.027344 14.433594 C 174 13.539062 175.011719 12.683594 176.054688 11.875 C 177.097656 11.0625 178.175781 10.292969 179.28125 9.570312 C 180.390625 8.847656 181.523438 8.171875 182.6875 7.542969 C 183.851562 6.914062 185.039062 6.332031 186.25 5.800781 C 187.460938 5.269531 188.691406 4.789062 189.945312 4.359375 C 191.195312 3.929688 192.460938 3.550781 193.742188 3.226562 C 195.027344 2.898438 196.320312 2.628906 197.625 2.410156 C 198.929688 2.1875 200.238281 2.023438 201.558594 1.914062 C 202.875 1.804688 204.195312 1.746094 205.519531 1.746094 Z M 205.519531 1.746094 "/>
</g>
</g>
</svg>
