<svg id="visual" viewBox="0 0 1200 300" width="1200" height="300" xmlns="http://www.w3.org/2000/svg" xmlns:xlink="http://www.w3.org/1999/xlink" version="1.1"><path d="M0 229L28.5 229.7C57 230.3 114 231.7 171.2 231.2C228.3 230.7 285.7 228.3 342.8 226.2C400 224 457 222 514.2 216C571.3 210 628.7 200 685.8 193.8C743 187.7 800 185.3 857.2 191C914.3 196.7 971.7 210.3 1028.8 210C1086 209.7 1143 195.3 1171.5 188.2L1200 181L1200 301L1171.5 301C1143 301 1086 301 1028.8 301C971.7 301 914.3 301 857.2 301C800 301 743 301 685.8 301C628.7 301 571.3 301 514.2 301C457 301 400 301 342.8 301C285.7 301 228.3 301 171.2 301C114 301 57 301 28.5 301L0 301Z" fill="#7aabff"></path><path d="M0 213L28.5 215C57 217 114 221 171.2 221C228.3 221 285.7 217 342.8 218.5C400 220 457 227 514.2 229.5C571.3 232 628.7 230 685.8 226.8C743 223.7 800 219.3 857.2 217.3C914.3 215.3 971.7 215.7 1028.8 217.8C1086 220 1143 224 1171.5 226L1200 228L1200 301L1171.5 301C1143 301 1086 301 1028.8 301C971.7 301 914.3 301 857.2 301C800 301 743 301 685.8 301C628.7 301 571.3 301 514.2 301C457 301 400 301 342.8 301C285.7 301 228.3 301 171.2 301C114 301 57 301 28.5 301L0 301Z" fill="#3e57b4"></path><path d="M0 246L28.5 250.8C57 255.7 114 265.3 171.2 269C228.3 272.7 285.7 270.3 342.8 266.7C400 263 457 258 514.2 254.3C571.3 250.7 628.7 248.3 685.8 246.7C743 245 800 244 857.2 246.7C914.3 249.3 971.7 255.7 1028.8 260.8C1086 266 1143 270 1171.5 272L1200 274L1200 301L1171.5 301C1143 301 1086 301 1028.8 301C971.7 301 914.3 301 857.2 301C800 301 743 301 685.8 301C628.7 301 571.3 301 514.2 301C457 301 400 301 342.8 301C285.7 301 228.3 301 171.2 301C114 301 57 301 28.5 301L0 301Z" fill="#050566"></path></svg>