<svg id="visual" viewBox="0 0 1200 500" width="1200" height="500" xmlns="http://www.w3.org/2000/svg" xmlns:xlink="http://www.w3.org/1999/xlink" version="1.1"><path d="M0 66L18.2 67.7C36.3 69.3 72.7 72.7 109 83.5C145.3 94.3 181.7 112.7 218 116C254.3 119.3 290.7 107.7 327 106C363.3 104.3 399.7 112.7 436 112.7C472.3 112.7 508.7 104.3 545.2 97.7C581.7 91 618.3 86 654.8 84.3C691.3 82.7 727.7 84.3 764 94.3C800.3 104.3 836.7 122.7 873 121C909.3 119.3 945.7 97.7 982 88.5C1018.3 79.3 1054.7 82.7 1091 83.5C1127.3 84.3 1163.7 82.7 1181.8 81.8L1200 81L1200 0L1181.8 0C1163.7 0 1127.3 0 1091 0C1054.7 0 1018.3 0 982 0C945.7 0 909.3 0 873 0C836.7 0 800.3 0 764 0C727.7 0 691.3 0 654.8 0C618.3 0 581.7 0 545.2 0C508.7 0 472.3 0 436 0C399.7 0 363.3 0 327 0C290.7 0 254.3 0 218 0C181.7 0 145.3 0 109 0C72.7 0 36.3 0 18.2 0L0 0Z" fill="#0040a3"></path><path d="M0 146L18.2 140.2C36.3 134.3 72.7 122.7 109 129.3C145.3 136 181.7 161 218 171C254.3 181 290.7 176 327 179.3C363.3 182.7 399.7 194.3 436 188.5C472.3 182.7 508.7 159.3 545.2 156.8C581.7 154.3 618.3 172.7 654.8 180.2C691.3 187.7 727.7 184.3 764 187.7C800.3 191 836.7 201 873 195.2C909.3 189.3 945.7 167.7 982 154.3C1018.3 141 1054.7 136 1091 141C1127.3 146 1163.7 161 1181.8 168.5L1200 176L1200 79L1181.8 79.8C1163.7 80.7 1127.3 82.3 1091 81.5C1054.7 80.7 1018.3 77.3 982 86.5C945.7 95.7 909.3 117.3 873 119C836.7 120.7 800.3 102.3 764 92.3C727.7 82.3 691.3 80.7 654.8 82.3C618.3 84 581.7 89 545.2 95.7C508.7 102.3 472.3 110.7 436 110.7C399.7 110.7 363.3 102.3 327 104C290.7 105.7 254.3 117.3 218 114C181.7 110.7 145.3 92.3 109 81.5C72.7 70.7 36.3 67.3 18.2 65.7L0 64Z" fill="#2060e2"></path><path d="M0 231L18.2 221.8C36.3 212.7 72.7 194.3 109 197.7C145.3 201 181.7 226 218 230.2C254.3 234.3 290.7 217.7 327 216.8C363.3 216 399.7 231 436 234.3C472.3 237.7 508.7 229.3 545.2 226.8C581.7 224.3 618.3 227.7 654.8 231.8C691.3 236 727.7 241 764 242.7C800.3 244.3 836.7 242.7 873 240.2C909.3 237.7 945.7 234.3 982 221C1018.3 207.7 1054.7 184.3 1091 186.8C1127.3 189.3 1163.7 217.7 1181.8 231.8L1200 246L1200 174L1181.8 166.5C1163.7 159 1127.3 144 1091 139C1054.7 134 1018.3 139 982 152.3C945.7 165.7 909.3 187.3 873 193.2C836.7 199 800.3 189 764 185.7C727.7 182.3 691.3 185.7 654.8 178.2C618.3 170.7 581.7 152.3 545.2 154.8C508.7 157.3 472.3 180.7 436 186.5C399.7 192.3 363.3 180.7 327 177.3C290.7 174 254.3 179 218 169C181.7 159 145.3 134 109 127.3C72.7 120.7 36.3 132.3 18.2 138.2L0 144Z" fill="#5082ed"></path><path d="M0 331L18.2 337.7C36.3 344.3 72.7 357.7 109 354.3C145.3 351 181.7 331 218 316.8C254.3 302.7 290.7 294.3 327 302.7C363.3 311 399.7 336 436 348.5C472.3 361 508.7 361 545.2 366C581.7 371 618.3 381 654.8 390.2C691.3 399.3 727.7 407.7 764 397.7C800.3 387.7 836.7 359.3 873 351C909.3 342.7 945.7 354.3 982 345.2C1018.3 336 1054.7 306 1091 296.8C1127.3 287.7 1163.7 299.3 1181.8 305.2L1200 311L1200 244L1181.8 229.8C1163.7 215.7 1127.3 187.3 1091 184.8C1054.7 182.3 1018.3 205.7 982 219C945.7 232.3 909.3 235.7 873 238.2C836.7 240.7 800.3 242.3 764 240.7C727.7 239 691.3 234 654.8 229.8C618.3 225.7 581.7 222.3 545.2 224.8C508.7 227.3 472.3 235.7 436 232.3C399.7 229 363.3 214 327 214.8C290.7 215.7 254.3 232.3 218 228.2C181.7 224 145.3 199 109 195.7C72.7 192.3 36.3 210.7 18.2 219.8L0 229Z" fill="#2060e2"></path><path d="M0 501L18.2 501C36.3 501 72.7 501 109 501C145.3 501 181.7 501 218 501C254.3 501 290.7 501 327 501C363.3 501 399.7 501 436 501C472.3 501 508.7 501 545.2 501C581.7 501 618.3 501 654.8 501C691.3 501 727.7 501 764 501C800.3 501 836.7 501 873 501C909.3 501 945.7 501 982 501C1018.3 501 1054.7 501 1091 501C1127.3 501 1163.7 501 1181.8 501L1200 501L1200 309L1181.8 303.2C1163.7 297.3 1127.3 285.7 1091 294.8C1054.7 304 1018.3 334 982 343.2C945.7 352.3 909.3 340.7 873 349C836.7 357.3 800.3 385.7 764 395.7C727.7 405.7 691.3 397.3 654.8 388.2C618.3 379 581.7 369 545.2 364C508.7 359 472.3 359 436 346.5C399.7 334 363.3 309 327 300.7C290.7 292.3 254.3 300.7 218 314.8C181.7 329 145.3 349 109 352.3C72.7 355.7 36.3 342.3 18.2 335.7L0 329Z" fill="#0040a3"></path></svg>