<svg id="visual" viewBox="0 0 900 600" width="900" height="600" xmlns="http://www.w3.org/2000/svg" xmlns:xlink="http://www.w3.org/1999/xlink" version="1.1"><path d="M0 439L30 461C60 483 120 527 180 542.2C240 557.3 300 543.7 360 518.8C420 494 480 458 540 459.7C600 461.3 660 500.7 720 512C780 523.3 840 506.7 870 498.3L900 490L900 601L870 601C840 601 780 601 720 601C660 601 600 601 540 601C480 601 420 601 360 601C300 601 240 601 180 601C120 601 60 601 30 601L0 601Z" fill="#050566" stroke-linecap="round" stroke-linejoin="miter"></path></svg>